<mxfile host="app.diagrams.net" agent="Mozilla/5.0 (Windows NT 10.0; Win64; x64) AppleWebKit/537.36 (KHTML, like Gecko) Chrome/140.0.0.0 Safari/537.36" version="28.2.2" pages="2">
  <diagram name="Page-1" id="-Siob01ZUHGpbAtg2kE5">
    <mxGraphModel dx="2325" dy="807" grid="1" gridSize="10" guides="1" tooltips="1" connect="1" arrows="1" fold="1" page="1" pageScale="1" pageWidth="850" pageHeight="1100" math="0" shadow="0">
      <root>
        <mxCell id="0" />
        <mxCell id="1" parent="0" />
        <mxCell id="ztq0xUDXzb5CW1vKEu0n-1" value="" style="rounded=0;whiteSpace=wrap;html=1;fillColor=none;strokeColor=#E6D0DE;dashed=1;" parent="1" vertex="1">
          <mxGeometry x="-40" y="60" width="170" height="565" as="geometry" />
        </mxCell>
        <mxCell id="ztq0xUDXzb5CW1vKEu0n-2" value="&lt;h3&gt;Data Warehouse&lt;/h3&gt;" style="rounded=0;whiteSpace=wrap;html=1;fontSize=15;strokeColor=none;fillColor=none;" parent="1" vertex="1">
          <mxGeometry x="430" y="80" width="210" height="40" as="geometry" />
        </mxCell>
        <mxCell id="ztq0xUDXzb5CW1vKEu0n-3" value="" style="rounded=0;whiteSpace=wrap;html=1;fillColor=none;strokeColor=#E6D0DE;dashed=1;" parent="1" vertex="1">
          <mxGeometry x="170" y="100" width="720" height="475" as="geometry" />
        </mxCell>
        <mxCell id="ztq0xUDXzb5CW1vKEu0n-4" value="" style="rounded=0;whiteSpace=wrap;html=1;fillColor=none;strokeColor=#E6D0DE;dashed=1;" parent="1" vertex="1">
          <mxGeometry x="930" y="55" width="140" height="725" as="geometry" />
        </mxCell>
        <mxCell id="ztq0xUDXzb5CW1vKEu0n-5" value="&lt;h3&gt;Consumer&lt;/h3&gt;" style="rounded=0;whiteSpace=wrap;html=1;fillColor=none;strokeColor=none;fontSize=13;" parent="1" vertex="1">
          <mxGeometry x="930" y="30" width="120" height="40" as="geometry" />
        </mxCell>
        <mxCell id="ztq0xUDXzb5CW1vKEu0n-6" value="Bronze Layer" style="rounded=0;whiteSpace=wrap;html=1;fillColor=#ffe6cc;strokeColor=#d79b00;fontStyle=1;fontSize=15;" parent="1" vertex="1">
          <mxGeometry x="180" y="160" width="190" height="40" as="geometry" />
        </mxCell>
        <mxCell id="ztq0xUDXzb5CW1vKEu0n-7" value="" style="rounded=0;whiteSpace=wrap;html=1;fillColor=none;strokeColor=#d79b00;fontStyle=1;fontSize=15;" parent="1" vertex="1">
          <mxGeometry x="180" y="210" width="190" height="580" as="geometry" />
        </mxCell>
        <mxCell id="ztq0xUDXzb5CW1vKEu0n-8" value="" style="rounded=0;whiteSpace=wrap;html=1;fontStyle=1;fontSize=15;fillColor=none;fontColor=#333333;strokeColor=#666666;" parent="1" vertex="1">
          <mxGeometry x="430" y="210" width="190" height="580" as="geometry" />
        </mxCell>
        <mxCell id="ztq0xUDXzb5CW1vKEu0n-9" value="Silver Layer" style="rounded=0;whiteSpace=wrap;html=1;fillColor=#f5f5f5;strokeColor=#666666;fontStyle=1;fontSize=15;fontColor=#333333;" parent="1" vertex="1">
          <mxGeometry x="430" y="160" width="190" height="40" as="geometry" />
        </mxCell>
        <mxCell id="ztq0xUDXzb5CW1vKEu0n-10" value="" style="rounded=0;whiteSpace=wrap;html=1;fillColor=none;strokeColor=#9673a6;fontStyle=1;fontSize=15;" parent="1" vertex="1">
          <mxGeometry x="680" y="210" width="190" height="575" as="geometry" />
        </mxCell>
        <mxCell id="ztq0xUDXzb5CW1vKEu0n-11" value="Gold Layer" style="rounded=0;whiteSpace=wrap;html=1;fillColor=#e1d5e7;strokeColor=#9673a6;fontStyle=1;fontSize=15;" parent="1" vertex="1">
          <mxGeometry x="680" y="160" width="190" height="40" as="geometry" />
        </mxCell>
        <mxCell id="ztq0xUDXzb5CW1vKEu0n-12" value="&lt;h4&gt;Retail Dataset(Kaggle)&lt;/h4&gt;" style="image;aspect=fixed;html=1;points=[];align=center;fontSize=12;image=img/lib/azure2/general/Folder_Blank.svg;" parent="1" vertex="1">
          <mxGeometry x="10.14" y="170" width="80" height="64.93" as="geometry" />
        </mxCell>
        <mxCell id="ztq0xUDXzb5CW1vKEu0n-13" value="&lt;h4&gt;CSV Files(6)&lt;/h4&gt;" style="image;aspect=fixed;html=1;points=[];align=center;fontSize=12;image=img/lib/azure2/general/File.svg;" parent="1" vertex="1">
          <mxGeometry x="20" y="340" width="60.28" height="74.27" as="geometry" />
        </mxCell>
        <mxCell id="ztq0xUDXzb5CW1vKEu0n-14" value="" style="endArrow=none;html=1;rounded=0;entryX=0.882;entryY=0.726;entryDx=0;entryDy=0;entryPerimeter=0;" parent="1" target="ztq0xUDXzb5CW1vKEu0n-1" edge="1">
          <mxGeometry width="50" height="50" relative="1" as="geometry">
            <mxPoint x="-20" y="470" as="sourcePoint" />
            <mxPoint x="94.97000000000006" y="470.19000000000005" as="targetPoint" />
            <Array as="points">
              <mxPoint x="50" y="470" />
            </Array>
          </mxGeometry>
        </mxCell>
        <mxCell id="ztq0xUDXzb5CW1vKEu0n-15" value="Object Type: CSV File&#xa;&#xa;Interface: Files in Folder" style="fillColor=none;strokeColor=none;align=left;fontSize=14;" parent="1" vertex="1">
          <mxGeometry x="-30" y="490" width="150" height="40" as="geometry" />
        </mxCell>
        <mxCell id="ztq0xUDXzb5CW1vKEu0n-16" value="" style="html=1;verticalLabelPosition=bottom;align=center;labelBackgroundColor=#ffffff;verticalAlign=top;strokeWidth=2;strokeColor=#d79b00;shadow=0;dashed=0;shape=mxgraph.ios7.icons.data;fillColor=#ffe6cc;" parent="1" vertex="1">
          <mxGeometry x="240" y="285" width="63.5" height="80" as="geometry" />
        </mxCell>
        <mxCell id="ztq0xUDXzb5CW1vKEu0n-17" value="" style="html=1;verticalLabelPosition=bottom;align=center;labelBackgroundColor=#ffffff;verticalAlign=top;strokeWidth=2;strokeColor=#666666;shadow=0;dashed=0;shape=mxgraph.ios7.icons.data;fillColor=#f5f5f5;fontColor=#333333;" parent="1" vertex="1">
          <mxGeometry x="493.25" y="285" width="63.5" height="80" as="geometry" />
        </mxCell>
        <mxCell id="ztq0xUDXzb5CW1vKEu0n-18" value="" style="html=1;verticalLabelPosition=bottom;align=center;labelBackgroundColor=#ffffff;verticalAlign=top;strokeWidth=2;strokeColor=#9673a6;shadow=0;dashed=0;shape=mxgraph.ios7.icons.data;fillColor=#e1d5e7;" parent="1" vertex="1">
          <mxGeometry x="743.25" y="280" width="63.5" height="80" as="geometry" />
        </mxCell>
        <mxCell id="ztq0xUDXzb5CW1vKEu0n-19" value="" style="shape=singleArrow;whiteSpace=wrap;html=1;fillColor=#dae8fc;strokeColor=#6c8ebf;" parent="1" vertex="1">
          <mxGeometry x="110" y="300" width="70" height="40" as="geometry" />
        </mxCell>
        <mxCell id="ztq0xUDXzb5CW1vKEu0n-20" value="Sources" style="rounded=0;whiteSpace=wrap;html=1;fillColor=none;strokeColor=none;fontStyle=1;fontSize=15;" parent="1" vertex="1">
          <mxGeometry x="-40.000000000000014" y="40" width="190" height="40" as="geometry" />
        </mxCell>
        <mxCell id="ztq0xUDXzb5CW1vKEu0n-21" value="" style="shape=singleArrow;whiteSpace=wrap;html=1;fillColor=#dae8fc;strokeColor=#6c8ebf;" parent="1" vertex="1">
          <mxGeometry x="360" y="305" width="70" height="40" as="geometry" />
        </mxCell>
        <mxCell id="ztq0xUDXzb5CW1vKEu0n-22" value="" style="shape=singleArrow;whiteSpace=wrap;html=1;fillColor=#dae8fc;strokeColor=#6c8ebf;" parent="1" vertex="1">
          <mxGeometry x="610" y="300" width="70" height="40" as="geometry" />
        </mxCell>
        <mxCell id="ztq0xUDXzb5CW1vKEu0n-23" value="" style="shape=singleArrow;whiteSpace=wrap;html=1;fillColor=#dae8fc;strokeColor=#6c8ebf;" parent="1" vertex="1">
          <mxGeometry x="860" y="300" width="70" height="40" as="geometry" />
        </mxCell>
        <mxCell id="ztq0xUDXzb5CW1vKEu0n-24" value="Raw Data" style="text;html=1;align=center;verticalAlign=middle;whiteSpace=wrap;rounded=0;" parent="1" vertex="1">
          <mxGeometry x="196.75" y="365" width="150" height="30" as="geometry" />
        </mxCell>
        <mxCell id="ztq0xUDXzb5CW1vKEu0n-25" value="Cleaned &amp;amp; Standardized Data" style="text;html=1;align=center;verticalAlign=middle;whiteSpace=wrap;rounded=0;" parent="1" vertex="1">
          <mxGeometry x="450" y="370" width="150" height="30" as="geometry" />
        </mxCell>
        <mxCell id="ztq0xUDXzb5CW1vKEu0n-26" value="Analysis-Ready Data" style="text;html=1;align=center;verticalAlign=middle;whiteSpace=wrap;rounded=0;" parent="1" vertex="1">
          <mxGeometry x="690" y="365" width="150" height="30" as="geometry" />
        </mxCell>
        <mxCell id="ztq0xUDXzb5CW1vKEu0n-27" value="" style="endArrow=none;html=1;rounded=0;" parent="1" edge="1">
          <mxGeometry width="50" height="50" relative="1" as="geometry">
            <mxPoint x="196.75" y="414.27" as="sourcePoint" />
            <mxPoint x="215" y="414.27" as="targetPoint" />
            <Array as="points">
              <mxPoint x="336.75" y="414.27" />
            </Array>
          </mxGeometry>
        </mxCell>
        <mxCell id="ztq0xUDXzb5CW1vKEu0n-28" value="" style="endArrow=none;html=1;rounded=0;fontStyle=1" parent="1" edge="1">
          <mxGeometry width="50" height="50" relative="1" as="geometry">
            <mxPoint x="450" y="420" as="sourcePoint" />
            <mxPoint x="460" y="420" as="targetPoint" />
            <Array as="points">
              <mxPoint x="600" y="420" />
            </Array>
          </mxGeometry>
        </mxCell>
        <mxCell id="ztq0xUDXzb5CW1vKEu0n-29" value="" style="endArrow=none;html=1;rounded=0;fontStyle=1" parent="1" edge="1">
          <mxGeometry width="50" height="50" relative="1" as="geometry">
            <mxPoint x="710" y="420" as="sourcePoint" />
            <mxPoint x="700" y="420" as="targetPoint" />
            <Array as="points">
              <mxPoint x="860" y="420" />
            </Array>
          </mxGeometry>
        </mxCell>
        <mxCell id="ztq0xUDXzb5CW1vKEu0n-30" value="Object Type: Tables&#xa;&#xa;Load&#xa;     &#xa;       * Batch Processing&#xa;       * Full Load&#xa;       * Truncate &amp; Insert&#xa;&#xa;No Transformation&#xa;&#xa;Data Model: None&#xa;" style="fillColor=none;strokeColor=none;align=left;fontSize=14;" parent="1" vertex="1">
          <mxGeometry x="196.75" y="430" width="150" height="170" as="geometry" />
        </mxCell>
        <mxCell id="ztq0xUDXzb5CW1vKEu0n-31" value="Object Type: Tables&#xa;&#xa;Load&#xa;     &#xa;       * Batch Processing&#xa;       * Full Load&#xa;       * Truncate &amp; Insert&#xa;&#xa;---Transformations---&#xa;      &#xa;      * Data Cleaning&#xa;      * Data Standardization&#xa;      * Data Normalization&#xa;      * Derived Columns&#xa;      * Data Enrichment&#xa;&#xa;Data Model: None&#xa;" style="fillColor=none;strokeColor=none;align=left;fontSize=14;fontStyle=0" parent="1" vertex="1">
          <mxGeometry x="450" y="500" width="150" height="190" as="geometry" />
        </mxCell>
        <mxCell id="ztq0xUDXzb5CW1vKEu0n-32" value="Object Type: Views&#xa;&#xa;Load : None&#xa;&#xa;---Transformations---&#xa;      &#xa;      * Data Integration&#xa;      * Aggregation&#xa;      * Business Logics&#xa;      &#xa;Data Model: &#xa;    &#xa;      * Star Schema&#xa;      * Flat Table&#xa;      * Aggregated Table&#xa;" style="fillColor=none;strokeColor=none;align=left;fontSize=14;fontStyle=0" parent="1" vertex="1">
          <mxGeometry x="700" y="510" width="150" height="190" as="geometry" />
        </mxCell>
        <mxCell id="ztq0xUDXzb5CW1vKEu0n-33" value="" style="image;aspect=fixed;html=1;points=[];align=center;fontSize=12;image=img/lib/azure2/power_platform/PowerBI.svg;" parent="1" vertex="1">
          <mxGeometry x="970" y="380" width="60" height="80" as="geometry" />
        </mxCell>
        <mxCell id="ztq0xUDXzb5CW1vKEu0n-34" value="" style="image;aspect=fixed;perimeter=ellipsePerimeter;html=1;align=center;shadow=0;dashed=0;spacingTop=3;image=img/lib/active_directory/sql_server.svg;" parent="1" vertex="1">
          <mxGeometry x="970" y="180" width="67.5" height="87.66" as="geometry" />
        </mxCell>
        <mxCell id="ztq0xUDXzb5CW1vKEu0n-35" value="SQL Queries" style="text;html=1;align=center;verticalAlign=middle;whiteSpace=wrap;rounded=0;" parent="1" vertex="1">
          <mxGeometry x="973.75" y="270" width="60" height="30" as="geometry" />
        </mxCell>
        <mxCell id="ztq0xUDXzb5CW1vKEu0n-36" value="BI &amp;amp; Reporting&lt;div&gt;&lt;br&gt;&lt;/div&gt;" style="text;html=1;align=center;verticalAlign=middle;whiteSpace=wrap;rounded=0;" parent="1" vertex="1">
          <mxGeometry x="970" y="470" width="60" height="30" as="geometry" />
        </mxCell>
        <mxCell id="ztq0xUDXzb5CW1vKEu0n-37" value="" style="outlineConnect=0;dashed=0;verticalLabelPosition=bottom;verticalAlign=top;align=center;html=1;shape=mxgraph.aws3.sql_slave;fillColor=#2E73B8;gradientColor=none;" parent="1" vertex="1">
          <mxGeometry x="225" y="35.5" width="100" height="64.5" as="geometry" />
        </mxCell>
      </root>
    </mxGraphModel>
  </diagram>
  <diagram id="ExL3JDyVGKIEL37gqsgu" name="Page-2">
    <mxGraphModel dx="1664" dy="1665" grid="0" gridSize="10" guides="1" tooltips="1" connect="1" arrows="1" fold="1" page="0" pageScale="1" pageWidth="850" pageHeight="1100" math="0" shadow="0">
      <root>
        <mxCell id="0" />
        <mxCell id="1" parent="0" />
        <mxCell id="fmC_lQFQGYBRF6gCkX9U-1" value="" style="rounded=0;whiteSpace=wrap;html=1;fillColor=none;strokeColor=none;dashed=1;" parent="1" vertex="1">
          <mxGeometry x="-147.5" y="-260" width="135" height="518" as="geometry" />
        </mxCell>
        <mxCell id="fmC_lQFQGYBRF6gCkX9U-2" value="Sources" style="rounded=0;whiteSpace=wrap;html=1;fillColor=none;strokeColor=none;fontStyle=1;fontSize=13;" parent="1" vertex="1">
          <mxGeometry x="-127" y="-280" width="89" height="35" as="geometry" />
        </mxCell>
        <mxCell id="83cTrTuNSZm-g3Y3FvXc-1" value="" style="edgeStyle=none;curved=1;rounded=0;orthogonalLoop=1;jettySize=auto;html=1;fontSize=12;startSize=8;endSize=8;" edge="1" parent="1" source="fmC_lQFQGYBRF6gCkX9U-3">
          <mxGeometry relative="1" as="geometry">
            <mxPoint x="38" y="25" as="targetPoint" />
            <Array as="points">
              <mxPoint x="-34" y="25" />
            </Array>
          </mxGeometry>
        </mxCell>
        <mxCell id="83cTrTuNSZm-g3Y3FvXc-7" style="edgeStyle=none;curved=1;rounded=0;orthogonalLoop=1;jettySize=auto;html=1;fontSize=12;startSize=8;endSize=8;" edge="1" parent="1">
          <mxGeometry relative="1" as="geometry">
            <mxPoint x="34.1" y="-95" as="targetPoint" />
            <mxPoint x="-36.9" y="24.003242009132364" as="sourcePoint" />
            <Array as="points">
              <mxPoint x="-32.9" y="-80" />
            </Array>
          </mxGeometry>
        </mxCell>
        <mxCell id="83cTrTuNSZm-g3Y3FvXc-8" style="edgeStyle=none;curved=1;rounded=0;orthogonalLoop=1;jettySize=auto;html=1;fontSize=12;startSize=8;endSize=8;" edge="1" parent="1">
          <mxGeometry relative="1" as="geometry">
            <mxPoint x="35" y="132" as="targetPoint" />
            <mxPoint x="-37.999999999999886" y="26.99766990291259" as="sourcePoint" />
            <Array as="points">
              <mxPoint x="-28" y="28.42" />
              <mxPoint x="-33" y="87" />
              <mxPoint x="-23" y="109" />
              <mxPoint x="-9" y="124" />
              <mxPoint x="5" y="135" />
            </Array>
          </mxGeometry>
        </mxCell>
        <mxCell id="fmC_lQFQGYBRF6gCkX9U-3" value="" style="image;aspect=fixed;html=1;points=[];align=center;fontSize=12;image=img/lib/azure2/general/Folder_Blank.svg;" parent="1" vertex="1">
          <mxGeometry x="-128.1" y="-25" width="91.2" height="74" as="geometry" />
        </mxCell>
        <mxCell id="LdHS5Q6_UiLw_y5LUM4G-1" value="Retail DataSet&lt;div&gt;&lt;br&gt;&lt;/div&gt;" style="text;html=1;align=center;verticalAlign=middle;whiteSpace=wrap;rounded=0;fontStyle=1" parent="1" vertex="1">
          <mxGeometry x="-122" y="72" width="84" height="30" as="geometry" />
        </mxCell>
        <mxCell id="RgSLjPr1XDYpq2d2eIXt-1" value="" style="rounded=0;whiteSpace=wrap;html=1;strokeColor=none;" parent="1" vertex="1">
          <mxGeometry x="43" y="-184" width="147" height="452" as="geometry" />
        </mxCell>
        <mxCell id="RgSLjPr1XDYpq2d2eIXt-4" value="&lt;b&gt;Bronze Layer&lt;/b&gt;" style="rounded=0;whiteSpace=wrap;html=1;fillColor=#ffe6cc;strokeColor=#d79b00;" parent="1" vertex="1">
          <mxGeometry x="40" y="-226" width="147" height="36" as="geometry" />
        </mxCell>
        <mxCell id="GdSuHLVi5CyYS8QwBoZR-1" value="&lt;b&gt;Campaigns&lt;/b&gt;" style="rounded=0;whiteSpace=wrap;html=1;fillColor=#ffe6cc;strokeColor=#d79b00;" parent="1" vertex="1">
          <mxGeometry x="40" y="-123" width="147" height="36" as="geometry" />
        </mxCell>
        <mxCell id="GdSuHLVi5CyYS8QwBoZR-2" value="&lt;b&gt;Cust_review_comp&lt;/b&gt;" style="rounded=0;whiteSpace=wrap;html=1;fillColor=#ffe6cc;strokeColor=#d79b00;" parent="1" vertex="1">
          <mxGeometry x="40" y="-73" width="147" height="36" as="geometry" />
        </mxCell>
        <mxCell id="GdSuHLVi5CyYS8QwBoZR-3" value="&lt;b&gt;Customers&lt;/b&gt;" style="rounded=0;whiteSpace=wrap;html=1;fillColor=#ffe6cc;strokeColor=#d79b00;" parent="1" vertex="1">
          <mxGeometry x="40" y="-25" width="147" height="36" as="geometry" />
        </mxCell>
        <mxCell id="GdSuHLVi5CyYS8QwBoZR-4" value="&lt;b&gt;Interactions&lt;/b&gt;" style="rounded=0;whiteSpace=wrap;html=1;fillColor=#ffe6cc;strokeColor=#d79b00;" parent="1" vertex="1">
          <mxGeometry x="40" y="24" width="147" height="36" as="geometry" />
        </mxCell>
        <mxCell id="GdSuHLVi5CyYS8QwBoZR-5" value="&lt;b&gt;Support_tickets&lt;/b&gt;" style="rounded=0;whiteSpace=wrap;html=1;fillColor=#ffe6cc;strokeColor=#d79b00;" parent="1" vertex="1">
          <mxGeometry x="40" y="72" width="147" height="36" as="geometry" />
        </mxCell>
        <mxCell id="GdSuHLVi5CyYS8QwBoZR-6" value="&lt;b&gt;Transaction&lt;/b&gt;" style="rounded=0;whiteSpace=wrap;html=1;fillColor=#ffe6cc;strokeColor=#d79b00;" parent="1" vertex="1">
          <mxGeometry x="40" y="120" width="147" height="36" as="geometry" />
        </mxCell>
        <mxCell id="83cTrTuNSZm-g3Y3FvXc-9" style="edgeStyle=none;curved=1;rounded=0;orthogonalLoop=1;jettySize=auto;html=1;exitX=0.5;exitY=0;exitDx=0;exitDy=0;fontSize=12;startSize=8;endSize=8;" edge="1" parent="1" source="RgSLjPr1XDYpq2d2eIXt-1" target="RgSLjPr1XDYpq2d2eIXt-1">
          <mxGeometry relative="1" as="geometry" />
        </mxCell>
        <mxCell id="83cTrTuNSZm-g3Y3FvXc-11" value="Data Flow Diagram" style="text;html=1;align=center;verticalAlign=middle;resizable=0;points=[];autosize=1;strokeColor=none;fillColor=none;fontSize=35;fontStyle=1" vertex="1" parent="1">
          <mxGeometry x="-439" y="-438" width="318" height="54" as="geometry" />
        </mxCell>
      </root>
    </mxGraphModel>
  </diagram>
</mxfile>
